<svg width="500" height="500" viewBox="0 0 500 500" fill="none" xmlns="http://www.w3.org/2000/svg">
<g clip-path="url(#clip0_1095_2)">
<rect width="500" height="500" rx="80" fill="#3179C7"/>
<g clip-path="url(#clip1_1095_2)">
<path d="M125.844 113C118.731 113 113 118.731 113 125.844V374.156C113 381.269 118.731 387 125.844 387H374.156C381.269 387 387 381.269 387 374.156V125.844C387 118.731 381.269 113 374.156 113H125.844ZM324.071 224.313C331.058 224.313 337.246 224.735 342.646 225.58C347.74 226.343 352.738 227.644 357.556 229.461V257.524C355.243 255.924 352.786 254.544 350.216 253.402C347.565 252.21 344.829 251.217 342.03 250.434C336.728 248.956 331.253 248.189 325.75 248.151C322.325 248.151 319.208 248.47 316.399 249.132C313.896 249.668 311.495 250.6 309.287 251.895C307.346 253.083 305.862 254.51 304.8 256.165C303.732 257.834 303.176 259.778 303.202 261.759C303.202 263.997 303.807 266.018 304.983 267.799C306.17 269.58 307.86 271.269 310.04 272.868C312.221 274.466 314.87 276.019 317.986 277.548C321.103 279.09 324.631 280.677 328.558 282.298C333.924 284.547 338.742 286.944 343.012 289.467C347.281 292.002 350.946 294.867 354.006 298.064C357.066 301.249 359.395 304.891 361.016 308.99C362.637 313.089 363.459 317.849 363.459 323.295C363.459 330.796 362.032 337.109 359.2 342.201C356.434 347.223 352.464 351.479 347.647 354.588C342.454 357.881 336.699 360.187 330.67 361.392C324.208 362.762 317.393 363.447 310.234 363.447C303.189 363.478 296.156 362.852 289.228 361.575C283.233 360.538 277.419 358.643 271.966 355.947V325.921C282.284 334.702 295.373 339.554 308.921 339.621C312.723 339.621 316.045 339.278 318.877 338.593C321.72 337.908 324.083 336.949 325.989 335.739C327.885 334.506 329.3 333.068 330.248 331.401C331.295 329.46 331.772 327.263 331.622 325.062C331.473 322.862 330.703 320.749 329.403 318.968C327.707 316.723 325.632 314.792 323.272 313.26C320.346 311.32 317.264 309.624 314.059 308.191C310.26 306.456 306.427 304.796 302.562 303.213C292.082 298.84 284.273 293.486 279.124 287.173C273.986 280.859 271.406 273.222 271.406 264.282C271.406 257.272 272.811 251.256 275.619 246.221C278.428 241.186 282.241 237.042 287.081 233.788C292.201 230.411 297.885 227.979 303.864 226.607C310.485 225.046 317.268 224.276 324.071 224.313ZM151.531 226.459H260.709V251.187H221.527V361.313H190.508V251.187H151.531V226.459Z" fill="white"/>
</g>
</g>
<defs>
<clipPath id="clip0_1095_2">
<rect width="500" height="500" fill="white"/>
</clipPath>
<clipPath id="clip1_1095_2">
<rect width="274" height="274" fill="white" transform="translate(113 113)"/>
</clipPath>
</defs>
</svg>
